<?xml version="1.0" encoding="UTF-8"?>
<!-- Created with Grafika (https://www.grafika.cc/) -->
<svg xmlns="http://www.w3.org/2000/svg" xmlns:svg="http://www.w3.org/2000/svg" xmlns:xlink="http://www.w3.org/1999/xlink" width="2047.95" height="2048" viewBox="0 0 512 512" preserveAspectRatio="xMidYMid meet">
	<g transform="matrix(1, 0, 0, 1, 256, 256)">
		<g transform="matrix(1.0052638053894043, 0, 0, 1.0052638053894043, -256, -256)">
			<path d="M488.94,188.22 L488.94,188.22 C472.44,164.19 452.78,142.48 430.51,123.67 L490.61,63.59 C502.74,50.74 502.16,30.49 489.32,18.36 C476.97,6.7 457.67,6.71 445.34,18.39 L376.09,87.66 C338.39,68.82 296.78,59.16 254.64,59.45 C159.88,60.36 71.89,108.72 20.33,188.22 C-6.78,228.1 -6.78,280.49 20.33,320.36 C36.84,344.39 56.49,366.1 78.77,384.92 L18.67,445.05 C6.17,457.56 6.17,477.82 18.67,490.32 C31.17,502.82 51.44,502.82 63.94,490.32 L133.19,421.05 C170.88,439.89 212.5,449.55 254.64,449.26 C349.39,448.35 437.38,400 488.94,320.49 C516.11,280.59 516.11,228.13 488.94,188.22 L488.94,188.22 ZM73.11,284.22 C60.83,266.21 60.83,242.51 73.11,224.49 C112.45,162.08 180.87,124 254.64,123.45 C279.5,123.33 304.18,127.67 327.51,136.25 L287.96,175.79 C244.58,157.37 194.48,177.61 176.07,220.99 C167.02,242.3 167.02,266.37 176.07,287.68 L124.08,339.69 C104.47,323.79 87.3,305.11 73.11,284.22 L73.11,284.22 ZM436.16,284.22 C396.82,346.63 328.41,384.71 254.64,385.26 C229.78,385.38 205.1,381.04 181.76,372.46 L221.32,332.91 C264.7,351.32 314.79,331.08 333.21,287.7 C342.25,266.39 342.25,242.32 333.21,221.01 L385.2,169.02 C404.81,184.92 421.98,203.61 436.16,224.49 C448.45,242.51 448.45,266.21 436.16,284.22 L436.16,284.22 L436.16,284.22 Z" style="fill:#FFFFFF;" />
		</g>
	</g>
</svg>