<?xml version="1.0" encoding="UTF-8"?>
<!-- Created with Grafika (https://www.grafika.cc/) -->
<svg xmlns="http://www.w3.org/2000/svg" xmlns:svg="http://www.w3.org/2000/svg" xmlns:xlink="http://www.w3.org/1999/xlink" width="2048" height="2048" viewBox="0 0 512 512" preserveAspectRatio="xMidYMid meet">
	<g transform="matrix(1, 0, 0, 1, 256, 256)">
		<g transform="matrix(1.00520658493042, 0, 0, 1.00520658493042, -256, -256)">
			<path d="M488.94,188.54 C437.4,109.02 349.41,60.66 254.65,59.77 C159.9,60.66 71.91,109.02 20.37,188.54 C-6.79,228.4 -6.79,280.82 20.37,320.68 C71.88,400.25 159.87,448.66 254.65,449.58 C349.41,448.69 437.4,400.33 488.94,320.81 C516.15,280.92 516.15,228.43 488.94,188.54 L488.94,188.54 ZM436.2,284.54 C396.85,346.95 328.43,385.03 254.65,385.58 C180.88,385.03 112.45,346.95 73.11,284.54 C60.84,266.52 60.84,242.83 73.11,224.81 C112.45,162.4 180.87,124.32 254.65,123.77 C328.43,124.32 396.85,162.4 436.2,224.81 C448.47,242.83 448.47,266.52 436.2,284.54 L436.2,284.54 Z" style="fill:#FFFFFF;" />
			<ellipse cx="254.65" cy="254.67" rx="85.33" ry="85.33" style="fill:#FFFFFF;" />
		</g>
	</g>
</svg>