<?xml version="1.0" encoding="UTF-8"?>
<!-- Created with Grafika (https://www.grafika.cc/) -->
<svg xmlns="http://www.w3.org/2000/svg" xmlns:svg="http://www.w3.org/2000/svg" xmlns:xlink="http://www.w3.org/1999/xlink" width="2048" height="2048" viewBox="0 0 512 512" preserveAspectRatio="xMidYMid meet">
	<g transform="matrix(1, 0, 0, 1, 258.9255065917969, 185.541259765625)">
		<g transform="matrix(1, 0, 0, 1, -2.925506591796875, 70.458740234375)">
			<path transform="matrix(21.33333396911621, 0, 0, 21.33333396911621, -256, -256)" d="M13.77,1.15 C13.3,0.68 12.66,0.41 12,0.41 C11.34,0.41 10.7,0.68 10.23,1.15 L0,11.38 L0,21 C0,22.66 1.34,24 3,24 L21,24 C22.66,24 24,22.66 24,21 L24,11.38 L13.77,1.15 ZM21,21 L16,21 L16,17.82 C16,16.81 15.6,15.83 14.88,15.12 C14.17,14.4 13.19,14 12.18,14 L11.82,14 C10.81,14 9.83,14.4 9.12,15.12 C8.4,15.83 8,16.81 8,17.82 L8,21 L3,21 L3,12.62 L12,3.62 L21,12.62 L21,21 Z" style="fill:#FFFFFF;" />
		</g>
	</g>
</svg>