<?xml version="1.0" encoding="UTF-8"?>
<!-- Created with Grafika (https://www.grafika.cc/) -->
<svg xmlns="http://www.w3.org/2000/svg" xmlns:svg="http://www.w3.org/2000/svg" xmlns:xlink="http://www.w3.org/1999/xlink" width="2048" height="2048" viewBox="0 0 512 512" preserveAspectRatio="xMidYMid meet">
	<g transform="matrix(1, 0, 0, 1, 256, 256)">
		<g transform="matrix(1.0063308477401733, 0, 0, 1.0063308477401733, -256, -256)">
			<path d="M403.72,180.4 L403.72,149.33 C403.72,66.86 336.86,0 254.39,0 C171.91,0 105.06,66.86 105.06,149.33 L105.06,180.39 C65.82,200.42 41.1,240.73 41.06,284.78 L41.06,391.45 C41.13,456.22 93.62,508.71 158.39,508.78 L350.39,508.78 C415.16,508.71 467.65,456.22 467.72,391.45 L467.72,284.78 C467.68,240.73 442.96,200.42 403.72,180.4 L403.72,180.4 ZM254.39,64 C301.52,64 339.72,102.21 339.72,149.33 L339.72,167.45 L169.06,167.45 L169.06,149.33 C169.06,102.21 207.26,64 254.39,64 L254.39,64 ZM403.72,391.45 C403.72,420.9 379.85,444.78 350.39,444.78 L158.39,444.78 C128.94,444.78 105.06,420.9 105.06,391.45 L105.06,284.78 C105.06,255.32 128.94,231.45 158.39,231.45 L350.39,231.45 C379.85,231.45 403.72,255.32 403.72,284.78 L403.72,391.45 L403.72,391.45 Z" style="fill:#FFFFFF;" />
			<path d="M243.72,295.45 L265.06,295.45 C282.73,295.45 297.06,309.77 297.06,327.45 L297.06,327.45 C297.06,345.12 282.73,359.45 265.06,359.45 L243.72,359.45 C226.05,359.45 211.72,345.12 211.72,327.45 L211.72,327.45 C211.72,309.77 226.05,295.45 243.72,295.45 L243.72,295.45 Z" style="fill:#FFFFFF;" />
		</g>
	</g>
</svg>