<?xml version="1.0" encoding="UTF-8"?>
<!-- Created with Grafika (https://www.grafika.cc/) -->
<svg xmlns="http://www.w3.org/2000/svg" xmlns:svg="http://www.w3.org/2000/svg" xmlns:xlink="http://www.w3.org/1999/xlink" width="2048" height="2048" viewBox="0 0 512 512" preserveAspectRatio="xMidYMid meet">
	<g transform="matrix(1, 0, 0, 1, 256, 256)">
		<path transform="matrix(21.33333396911621, 0, 0, 21.33333396911621, -256, -256)" d="M22.82,1.18 C21.24,-0.34 18.74,-0.34 17.15,1.18 L1.61,16.71 C0.58,17.74 -0,19.14 0,20.6 L0,22.5 C0,23.33 0.67,24 1.5,24 L3.4,24 C4.86,24 6.26,23.42 7.29,22.39 L22.82,6.85 C24.39,5.28 24.39,2.74 22.82,1.18 L22.82,1.18 ZM5.17,20.27 C4.7,20.73 4.06,21 3.4,21 L3,21 L3,20.6 C3,19.94 3.27,19.3 3.73,18.83 L15.3,7.27 L16.73,8.7 L5.17,20.27 ZM20.7,4.73 L18.85,6.58 L17.42,5.15 L19.27,3.3 C19.67,2.92 20.3,2.92 20.7,3.3 C21.1,3.7 21.09,4.34 20.7,4.73 L20.7,4.73 Z" style="fill:#FFFFFF;" />
	</g>
</svg>