<?xml version="1.0" encoding="UTF-8"?>
<!-- Created with Grafika (https://www.grafika.cc/) -->
<svg xmlns="http://www.w3.org/2000/svg" xmlns:svg="http://www.w3.org/2000/svg" xmlns:xlink="http://www.w3.org/1999/xlink" width="2048" height="2048" viewBox="0 0 512 512" preserveAspectRatio="xMidYMid meet">
	<g transform="matrix(1, 0, 0, 1, 256, 256)">
		<g transform="matrix(0.9994298815727234, 0, 0, 0.9994298815727234, -256, -256)">
			<path d="M256.06,0 L256.06,0 C273.73,0 288.06,14.33 288.06,32 L288.06,138.67 C288.06,156.34 273.73,170.67 256.06,170.67 L256.06,170.67 C238.39,170.67 224.06,156.34 224.06,138.67 L224.06,32 C224.06,14.33 238.39,0 256.06,0 L256.06,0 Z" style="fill:#FFFFFF;" />
			<path d="M330.73,105.39 L330.73,105.39 C330.57,116.13 335.99,126.19 345.04,131.97 C425.47,181.11 450.84,286.15 401.69,366.58 C352.55,447.02 247.51,472.38 167.08,423.24 C86.65,374.09 61.28,269.05 110.43,188.62 C124.47,165.64 143.75,146.3 166.7,132.2 C175.91,126.42 181.47,116.28 181.39,105.41 L181.39,105.41 C181.44,87.73 167.16,73.37 149.48,73.32 C143.41,73.3 137.46,75.01 132.33,78.25 C22.23,146.63 -11.58,291.32 56.8,401.41 C125.19,511.51 269.87,545.32 379.96,476.94 C490.06,408.55 523.87,263.87 455.49,153.78 C436.45,123.13 410.61,97.29 379.96,78.25 C364.97,68.79 345.14,73.28 335.68,88.28 C332.45,93.4 330.73,99.33 330.73,105.39 L330.73,105.39 Z" style="fill:#FFFFFF;" />
		</g>
	</g>
</svg>