<?xml version="1.0" encoding="UTF-8"?>
<!-- Created with Grafika (https://www.grafika.cc/) -->
<svg xmlns="http://www.w3.org/2000/svg" xmlns:svg="http://www.w3.org/2000/svg" xmlns:xlink="http://www.w3.org/1999/xlink" width="2048" height="2048" viewBox="0 0 256 256" preserveAspectRatio="xMidYMid meet">
	<g transform="matrix(1, 0, 0, 1, 136.49948120117188, 144.81112670898438)">
		<g transform="matrix(1, 0, 0, 1, -8.499481201171875, -16.811134338378906)">
			<path d="M-93.15,-14.27 L-94.04,69.61 C-94.18,73.73 -91.09,76.22 -80.04,78.37 C-65.78,78.92 -47.87,81.19 -16.36,91.66 C-14.09,92.55 -5.92,95.35 -5.85,89.12 L-4.93,0.32 C-4.19,-13.48 -64.27,-22.93 -85.65,-23.62 C-90.79,-23.52 -93.29,-20.37 -93.15,-14.27 ZM-52.71,81.46 Z" fill-rule="evenodd" style="fill:#FFFFFF;" />
			<path transform="matrix(-1, 0, 0, 1, -8.499483108520508, 16.811134338378906)" d="M-101.65,-31.08 L-102.54,52.8 C-102.68,56.91 -99.59,59.41 -88.54,61.56 C-74.28,62.11 -56.37,64.38 -24.85,74.85 C-22.59,75.74 -14.42,78.54 -14.35,72.31 L-13.43,-16.49 C-12.69,-30.3 -72.77,-39.74 -94.15,-40.43 C-99.29,-40.33 -101.79,-37.18 -101.65,-31.08 ZM-61.21,64.65 Z" fill-rule="evenodd" style="fill:#FFFFFF;" />
			<ellipse cx="-0.09" cy="-57.39" rx="35.67" ry="35.67" style="fill:#FFFFFF;" />
		</g>
	</g>
</svg>