<?xml version="1.0" encoding="UTF-8"?>
<!-- Created with Grafika (https://www.grafika.cc/) -->
<svg xmlns="http://www.w3.org/2000/svg" xmlns:svg="http://www.w3.org/2000/svg" xmlns:xlink="http://www.w3.org/1999/xlink" width="2048" height="2048" viewBox="0 0 512 512" preserveAspectRatio="xMidYMid meet">
	<g transform="matrix(1, 0, 0, 1, 256, 256)">
		<path transform="matrix(21.33333396911621, 0, 0, 21.33333396911621, -256, -256)" d="M23,3 L18,3 L18,2.5 C18,1.12 16.88,0 15.5,0 L8.5,0 C7.12,0 6,1.12 6,2.5 L6,3 L1,3 L1,6 L3,6 L3,21 C3,22.66 4.34,24 6,24 L18,24 C19.66,24 21,22.66 21,21 L21,6 L23,6 L23,3 ZM18,21 L6,21 L6,6 L18,6 L18,21 Z" style="fill:#FFFFFF;" />
		<rect transform="matrix(21.33333396911621, 0, 0, 21.33333396911621, -53.33332824707031, 32)" x="-1.5" y="-4.5" width="3" height="9" style="fill:#FFFFFF;" />
		<rect transform="matrix(21.33333396911621, 0, 0, 21.33333396911621, 53.333343505859375, 32)" x="-1.5" y="-4.5" width="3" height="9" style="fill:#FFFFFF;" />
	</g>
</svg>