<?xml version="1.0" encoding="UTF-8"?>
<!-- Created with Grafika (https://www.grafika.cc/) -->
<svg xmlns="http://www.w3.org/2000/svg" xmlns:svg="http://www.w3.org/2000/svg" xmlns:xlink="http://www.w3.org/1999/xlink" width="2048" height="2048" viewBox="0 0 512 512" preserveAspectRatio="xMidYMid meet">
	<g transform="matrix(1, 0, 0, 1, 256, 256)">
		<path transform="matrix(21.33333396911621, 0, 0, 21.33333396911621, -256, -256)" d="M21,24 L18,24 L18,19 C18,17.9 17.1,17 16,17 L8,17 C6.9,17 6,17.9 6,19 L6,24 L3,24 L3,19 C3,16.24 5.24,14 8,14 L16,14 C18.76,14 21,16.24 21,19 L21,24 Z" style="fill:#FFFFFF;" />
		<path transform="matrix(21.33333396911621, 0, 0, 21.33333396911621, -256, -256)" d="M12,12 C8.69,12 6,9.31 6,6 C6,2.69 8.69,0 12,0 C15.31,0 18,2.69 18,6 C18,9.31 15.31,12 12,12 L12,12 ZM12,3 C10.34,3 9,4.34 9,6 C9,7.66 10.34,9 12,9 C13.66,9 15,7.66 15,6 C15,4.34 13.66,3 12,3 L12,3 Z" style="fill:#FFFFFF;" />
	</g>
</svg>